<?xml version="1.0" encoding="UTF-8"?>
<svg width="157px" height="32px" viewBox="0 0 157 32" version="1.1" xmlns="http://www.w3.org/2000/svg" xmlns:xlink="http://www.w3.org/1999/xlink">
    <title>Group</title>
    <g id="Page-1" stroke="none" stroke-width="1" fill="none" fill-rule="evenodd">
        <g id="Group" fill="#FFFFFF" fill-rule="nonzero">
            <g id="Logo">
                <path d="M9.694367,8.04769993 C9.71021184,8.80926644 9.09181658,9.73777296 7.82400586,9.62173743 C5.3914875,12.6237677 4.72667354,17.1464859 6.83426101,20.9916632 C7.91215676,22.9582654 9.47053068,24.4271596 11.4951001,25.4005687 C12.6738672,25.9671867 13.9177991,26.2970655 15.2376077,26.3819803 L15.2376077,19.7712896 L15.2376077,19.7712896 C14.0679904,19.4983171 13.1795633,18.8538976 12.6116037,17.7937952 C12.3237185,17.2565196 12.1840161,16.6798986 12.1757589,16.0577081 L13.9249404,16.0577081 L13.9249404,16.0577081 C13.9706896,16.7812629 14.2683942,17.3709991 14.8792018,17.7782349 C15.4862155,18.1830255 16.1429955,18.2332631 16.8381601,18.0047487 L16.8381601,27.9615751 L16.8381601,27.9615751 C15.425291,28.0784998 14.0378629,27.9266755 12.6785537,27.5321103 C10.2944626,26.8401206 8.29689636,25.5457243 6.72691777,23.6291375 C4.93979786,21.447136 4.01856522,18.9381456 4.00026554,16.1163927 C3.98218902,13.2953067 4.88735365,10.7854271 6.61957453,8.56496942 C6.27946829,7.52598463 7.05943633,6.57658282 7.94897928,6.50544993 C8.91863913,6.42787062 9.67495148,7.11163554 9.694367,8.04769993 Z M22.1790228,11.042082 C22.1624234,11.1212568 22.1895656,11.2332166 22.2386909,11.2985637 C23.1355064,12.4902001 23.6888941,13.8232359 23.8010521,15.3054772 C24.0177415,18.1689283 22.9755691,20.5042501 20.72209,22.3029675 C20.6783484,22.3377598 20.6334852,22.371214 20.5897436,22.4060063 C20.5812196,22.4129201 20.5747144,22.4222873 20.5585636,22.4394604 L20.5585636,27.1529253 L20.5585636,27.1529253 C20.0036057,27.336923 19.4473019,27.5215899 18.8665477,27.7142857 L18.8665477,21.6142584 L18.8665477,21.6142584 C20.6781241,20.5934611 21.8228089,19.0840105 22.1527778,17.0223435 C22.4329486,15.271577 21.9993456,13.6796062 20.9410225,12.2482152 C20.7487837,12.2482152 20.5576664,12.2665034 20.3710354,12.2450928 C19.6061177,12.1565508 18.9970996,11.446208 19.0040534,10.6653884 C19.0112315,9.86293519 19.6231657,9.1724418 20.401991,9.08813738 C21.5460029,8.96413404 22.4125358,9.92114539 22.1790228,11.042082 Z M16.371623,4 C16.6974283,4.030536 17.0241287,4.05438528 17.3492627,4.09227667 C19.5030238,4.34325137 21.4560655,5.10932603 23.1822071,6.41457281 C25.6279846,8.2638953 27.1885384,10.6942933 27.7649632,13.6984115 C28.4329088,17.1804069 27.6705333,20.3641749 25.5628683,23.2247516 C25.5277368,23.2724501 25.4932767,23.3208174 25.4603829,23.3660642 C25.845039,24.5034744 25.0486509,25.4396145 24.1159884,25.5459333 C23.2455333,25.6451195 22.4290061,24.9753336 22.3553866,24.0737415 C22.2772918,23.1184328 23.1088114,22.2199612 24.1900554,22.3670689 C26.3473968,19.712443 27.2261313,15.4904512 25.4359922,11.6531683 C23.4601262,7.41802585 19.4918354,5.80630463 16.8433246,5.65629932 L16.8433246,12.280605 L16.8433246,12.280605 C18.663001,12.8476385 19.6493676,14.0675182 19.7939214,15.981256 L18.1834675,15.981256 L18.1834675,15.981256 C18.1501262,15.2408138 17.8567671,14.6356661 17.2355888,14.2152946 C16.6182146,13.7975978 15.9504928,13.7441041 15.2436116,13.9888378 L15.2436116,4.04078896 L15.2436116,4.04078896 C15.3691451,4.02674686 15.4899795,4.01337343 15.6108139,4 L16.371623,4 L16.371623,4 Z M13.0443776,4.28571429 L13.0441547,10.3701339 L13.0441547,10.3701339 C11.1282635,11.45744 9.97975397,13.0740485 9.73525273,15.272022 C9.55315836,16.9099895 9.99602434,18.3951068 10.9898539,19.7191416 C11.4053054,19.6546197 11.7882162,19.7173617 12.1441583,19.9291717 C12.7410356,20.2844874 13.0321191,21.0278247 12.8440069,21.7251067 C12.6699363,22.3712162 12.0382895,22.8620279 11.3651867,22.8747098 C10.2757409,22.8954014 9.52284645,21.9569408 9.76333582,20.8832066 C9.7758172,20.8273617 9.76400447,20.7468205 9.73034933,20.7029901 C8.525005,19.1242048 7.97627021,17.3358344 8.11958315,15.3656901 C8.29120208,13.0090816 9.3552394,11.1074641 11.2254399,9.65750015 C11.2693476,9.62390424 11.3132553,9.59030833 11.3642952,9.55115018 L11.3642952,4.83882312 L11.3642952,4.83882312 C11.9141444,4.65793918 12.4684512,4.47549781 13.0443776,4.28571429 Z" id="Shape"></path>
                <rect id="Rectangle" opacity="0" x="0" y="0" width="32" height="32"></rect>
            </g>
            <path d="M42.25,22 C42.726,22 43.167,21.951 43.573,21.853 C43.979,21.755 44.3266667,21.594 44.616,21.37 C44.9053333,21.146 45.1316667,20.852 45.295,20.488 C45.4583333,20.124 45.54,19.6806667 45.54,19.158 C45.54,18.486 45.3696667,17.926 45.029,17.478 C44.6883333,17.03 44.168,16.7546667 43.468,16.652 L43.468,16.652 L43.468,16.624 C43.6733333,16.5866667 43.8716667,16.519 44.063,16.421 C44.2543333,16.323 44.4246667,16.1876667 44.574,16.015 C44.7233333,15.8423333 44.8446667,15.6276667 44.938,15.371 C45.0313333,15.1143333 45.078,14.8086667 45.078,14.454 C45.078,14.0806667 45.0173333,13.7376667 44.896,13.425 C44.7746667,13.1123333 44.581,12.844 44.315,12.62 C44.049,12.396 43.706,12.2233333 43.286,12.102 C42.866,11.9806667 42.362,11.92 41.774,11.92 L41.774,11.92 L38.134,11.92 L38.134,22 L42.25,22 Z M41.494,16.372 L39.086,16.372 L39.086,12.732 L41.284,12.732 C41.8066667,12.732 42.2476667,12.7623333 42.607,12.823 C42.9663333,12.8836667 43.258,12.9816667 43.482,13.117 C43.706,13.2523333 43.8693333,13.4296667 43.972,13.649 C44.0746667,13.8683333 44.126,14.1366667 44.126,14.454 C44.126,14.762 44.0816667,15.035 43.993,15.273 C43.9043333,15.511 43.7573333,15.7116667 43.552,15.875 C43.3466667,16.0383333 43.076,16.162 42.74,16.246 C42.404,16.33 41.9886667,16.372 41.494,16.372 L41.494,16.372 Z M41.508,21.188 L39.086,21.188 L39.086,17.184 L41.62,17.184 C42.068,17.184 42.474,17.2096667 42.838,17.261 C43.202,17.3123333 43.5146667,17.408 43.776,17.548 C44.0373333,17.688 44.238,17.8863333 44.378,18.143 C44.518,18.3996667 44.588,18.738 44.588,19.158 C44.588,19.5966667 44.525,19.949 44.399,20.215 C44.273,20.481 44.084,20.6863333 43.832,20.831 C43.58,20.9756667 43.2603333,21.0713333 42.873,21.118 C42.4856667,21.1646667 42.0306667,21.188 41.508,21.188 L41.508,21.188 Z M49.922,22.196 C50.2393333,22.196 50.5193333,22.1563333 50.762,22.077 C51.0046667,21.9976667 51.217,21.8996667 51.399,21.783 C51.581,21.6663333 51.742,21.538 51.882,21.398 C52.022,21.258 52.148,21.1226667 52.26,20.992 L52.26,20.992 L52.26,22 L53.1,22 L53.1,14.748 L52.26,14.748 L52.26,18.696 C52.26,19.0973333 52.2086667,19.466 52.106,19.802 C52.0033333,20.138 51.8586667,20.4273333 51.672,20.67 C51.4853333,20.9126667 51.2543333,21.1016667 50.979,21.237 C50.7036667,21.3723333 50.3933333,21.44 50.048,21.44 C49.3853333,21.44 48.9093333,21.2743333 48.62,20.943 C48.3306667,20.6116667 48.186,20.1333333 48.186,19.508 L48.186,19.508 L48.186,14.748 L47.346,14.748 L47.346,19.522 C47.346,19.9046667 47.3903333,20.257 47.479,20.579 C47.5676667,20.901 47.7123333,21.1833333 47.913,21.426 C48.1136667,21.6686667 48.3773333,21.8576667 48.704,21.993 C49.0306667,22.1283333 49.4366667,22.196 49.922,22.196 Z M56.138,13.166 L56.138,11.92 L55.214,11.92 L55.214,13.166 L56.138,13.166 Z M56.096,22 L56.096,14.748 L55.256,14.748 L55.256,22 L56.096,22 Z M59.204,22 L59.204,11.92 L58.364,11.92 L58.364,22 L59.204,22 Z M62.928,22.196 C63.1333333,22.196 63.32,22.1726667 63.488,22.126 C63.656,22.0793333 63.7913333,22.0466667 63.894,22.028 L63.894,22.028 L63.894,21.342 C63.782,21.37 63.6676667,21.3933333 63.551,21.412 C63.4343333,21.4306667 63.32,21.44 63.208,21.44 C63.0306667,21.44 62.893,21.4213333 62.795,21.384 C62.697,21.3466667 62.6246667,21.286 62.578,21.202 C62.5313333,21.118 62.5033333,21.0106667 62.494,20.88 C62.4846667,20.7493333 62.48,20.5953333 62.48,20.418 L62.48,20.418 L62.48,15.448 L63.838,15.448 L63.838,14.748 L62.48,14.748 L62.48,12.732 L61.64,12.732 L61.64,14.748 L60.618,14.748 L60.618,15.448 L61.64,15.448 L61.64,20.754 C61.64,21.2953333 61.7496667,21.671 61.969,21.881 C62.1883333,22.091 62.508,22.196 62.928,22.196 Z M72.014,22.196 C72.518,22.196 72.9776667,22.105 73.393,21.923 C73.8083333,21.741 74.163,21.482 74.457,21.146 C74.751,20.81 74.9773333,20.4086667 75.136,19.942 C75.2946667,19.4753333 75.374,18.9526667 75.374,18.374 C75.374,17.842 75.3063333,17.3426667 75.171,16.876 C75.0356667,16.4093333 74.828,16.0056667 74.548,15.665 C74.268,15.3243333 73.918,15.0536667 73.498,14.853 C73.078,14.6523333 72.5833333,14.552 72.014,14.552 C71.454,14.552 70.964,14.6523333 70.544,14.853 C70.124,15.0536667 69.774,15.3266667 69.494,15.672 C69.214,16.0173333 69.004,16.421 68.864,16.883 C68.724,17.345 68.654,17.842 68.654,18.374 C68.654,19.0086667 68.7426667,19.564 68.92,20.04 C69.0973333,20.516 69.3376667,20.9126667 69.641,21.23 C69.9443333,21.5473333 70.299,21.7853333 70.705,21.944 C71.111,22.1026667 71.5473333,22.1866667 72.014,22.196 Z M72.014,21.44 C71.6126667,21.44 71.258,21.3653333 70.95,21.216 C70.642,21.0666667 70.3853333,20.8566667 70.18,20.586 C69.9746667,20.3153333 69.8183333,19.991 69.711,19.613 C69.6036667,19.235 69.55,18.822 69.55,18.374 C69.55,17.982 69.5966667,17.6016667 69.69,17.233 C69.7833333,16.8643333 69.928,16.5376667 70.124,16.253 C70.32,15.9683333 70.5743333,15.7396667 70.887,15.567 C71.1996667,15.3943333 71.5753333,15.308 72.014,15.308 C72.462,15.308 72.84,15.3873333 73.148,15.546 C73.456,15.7046667 73.708,15.9216667 73.904,16.197 C74.1,16.4723333 74.2446667,16.7966667 74.338,17.17 C74.4313333,17.5433333 74.478,17.9446667 74.478,18.374 C74.478,18.766 74.4313333,19.144 74.338,19.508 C74.2446667,19.872 74.1,20.1986667 73.904,20.488 C73.708,20.7773333 73.4536667,21.0083333 73.141,21.181 C72.8283333,21.3536667 72.4526667,21.44 72.014,21.44 Z M77.754,22 L77.754,18.094 C77.754,17.842 77.7633333,17.6086667 77.782,17.394 C77.8006667,17.1793333 77.852,16.9553333 77.936,16.722 C78.0013333,16.5353333 78.0946667,16.358 78.216,16.19 C78.3373333,16.022 78.4843333,15.8726667 78.657,15.742 C78.8296667,15.6113333 79.0233333,15.5063333 79.238,15.427 C79.4526667,15.3476667 79.6906667,15.308 79.952,15.308 C80.624,15.308 81.1046667,15.4713333 81.394,15.798 C81.6833333,16.1246667 81.828,16.6146667 81.828,17.268 L81.828,17.268 L81.828,22 L82.668,22 L82.668,17.254 C82.668,16.9553333 82.6516667,16.6683333 82.619,16.393 C82.5863333,16.1176667 82.4813333,15.8493333 82.304,15.588 C82.0426667,15.2053333 81.7206667,14.937 81.338,14.783 C80.9553333,14.629 80.54,14.552 80.092,14.552 C79.588,14.552 79.1563333,14.664 78.797,14.888 C78.4376667,15.112 78.09,15.4013333 77.754,15.756 L77.754,15.756 L77.754,14.748 L76.914,14.748 L76.914,22 L77.754,22 Z M92.9526953,22.2939453 C94.6069922,22.2939453 95.8807552,21.710612 96.7739844,20.5439453 C97.5350521,19.5504557 97.9155859,18.3040365 97.9155859,16.8046875 C97.9155859,15.4192708 97.5829036,14.2822266 96.9175391,13.3935547 C96.0653255,12.2542318 94.7528255,11.6845703 92.9800391,11.6845703 C91.2847266,11.6845703 90.0041276,12.304362 89.1382422,13.5439453 C88.463763,14.5100911 88.1265234,15.6722005 88.1265234,17.0302734 C88.1265234,18.5341797 88.5207292,19.7783203 89.3091406,20.7626953 C90.1932552,21.7835286 91.4077734,22.2939453 92.9526953,22.2939453 Z M93.1167578,21.0771484 C91.854388,21.0771484 90.9417904,20.6954753 90.3789648,19.9321289 C89.8161393,19.1687826 89.5347266,18.2311198 89.5347266,17.1191406 C89.5347266,15.7291667 89.8628516,14.6775716 90.5191016,13.9643555 C91.1753516,13.2511393 92.0230078,12.8945312 93.0620703,12.8945312 C94.1330339,12.8945312 94.9772721,13.2545573 95.5947852,13.9746094 C96.2122982,14.6946615 96.5210547,15.6448568 96.5210547,16.8251953 C96.5210547,17.9417318 96.2533138,18.9295247 95.717832,19.7885742 C95.1823503,20.6476237 94.3153255,21.0771484 93.1167578,21.0771484 Z M100.506406,24.9189453 L100.506406,21.1796875 C100.775286,21.5123698 101.019102,21.7470703 101.237852,21.8837891 C101.611549,22.1253255 102.074115,22.2460938 102.625547,22.2460938 C103.32737,22.2460938 103.942604,22.0296224 104.47125,21.5966797 C105.305234,20.9130859 105.722227,19.773763 105.722227,18.1787109 C105.722227,16.9983724 105.432839,16.090332 104.854062,15.4545898 C104.275286,14.8188477 103.571185,14.5009766 102.741758,14.5009766 C102.181211,14.5009766 101.693581,14.6376953 101.278867,14.9111328 C100.987201,15.0934245 100.71832,15.3509115 100.472227,15.6835938 L100.472227,15.6835938 L100.472227,14.7128906 L99.2759375,14.7128906 L99.2759375,24.9189453 L100.506406,24.9189453 Z M102.461484,21.1728516 C101.613828,21.1728516 101.030495,20.7945964 100.711484,20.0380859 C100.542865,19.6416016 100.458555,19.1608073 100.458555,18.5957031 C100.458555,17.8938802 100.542865,17.3151042 100.711484,16.859375 C101.025937,16.0071615 101.609271,15.5810547 102.461484,15.5810547 C103.309141,15.5810547 103.892474,15.984375 104.211484,16.7910156 C104.380104,17.2102865 104.464414,17.7115885 104.464414,18.2949219 C104.464414,19.2519531 104.274147,19.9708659 103.893613,20.4516602 C103.513079,20.9324544 103.035703,21.1728516 102.461484,21.1728516 Z M110.015195,22.2597656 C110.388893,22.2597656 110.723854,22.2233073 111.020078,22.1503906 C111.57151,22.0227865 112.034076,21.7766927 112.407773,21.4121094 C112.631081,21.202474 112.832741,20.9324544 113.012754,20.6020508 C113.192767,20.2716471 113.298724,19.9720052 113.330625,19.703125 L113.330625,19.703125 L112.120664,19.703125 C112.029518,20.0266927 111.87457,20.3115234 111.65582,20.5576172 C111.273008,20.9814453 110.760312,21.1933594 110.117734,21.1933594 C109.429583,21.1933594 108.921445,20.9689128 108.59332,20.5200195 C108.265195,20.0711263 108.08974,19.4752604 108.066953,18.7324219 L108.066953,18.7324219 L113.433164,18.7324219 C113.433164,17.9941406 113.396706,17.4563802 113.323789,17.1191406 C113.241758,16.6269531 113.077695,16.1962891 112.831602,15.8271484 C112.576393,15.4397786 112.204974,15.1241862 111.717344,14.8803711 C111.229714,14.636556 110.726133,14.5146484 110.206602,14.5146484 C109.176654,14.5146484 108.342669,14.8815104 107.704648,15.6152344 C107.066628,16.3489583 106.747617,17.3037109 106.747617,18.4794922 C106.747617,19.6735026 107.064349,20.6020508 107.697812,21.2651367 C108.331276,21.9282227 109.103737,22.2597656 110.015195,22.2597656 Z M112.168516,17.7548828 L108.101133,17.7548828 C108.123919,17.1259766 108.326719,16.6075846 108.709531,16.199707 C109.092344,15.7918294 109.566302,15.5878906 110.131406,15.5878906 C110.919818,15.5878906 111.482643,15.8841146 111.819883,16.4765625 C112.002174,16.7955729 112.118385,17.2216797 112.168516,17.7548828 L112.168516,17.7548828 Z M116.174375,22 L116.174375,18.1650391 C116.174375,17.6865234 116.205137,17.3185221 116.26666,17.0610352 C116.328184,16.8035482 116.461484,16.5540365 116.666562,16.3125 C116.921771,16.0117188 117.217995,15.8111979 117.555234,15.7109375 C117.742083,15.6516927 117.981341,15.6220703 118.273008,15.6220703 C118.847227,15.6220703 119.243711,15.8499349 119.462461,16.3056641 C119.594622,16.5791016 119.660703,16.9391276 119.660703,17.3857422 L119.660703,17.3857422 L119.660703,22 L120.91168,22 L120.91168,17.3037109 C120.91168,16.5654297 120.811419,15.9980469 120.610898,15.6015625 C120.246315,14.8769531 119.544492,14.5146484 118.50543,14.5146484 C118.031471,14.5146484 117.600807,14.6080729 117.213437,14.7949219 C116.826068,14.9817708 116.459206,15.289388 116.112852,15.7177734 L116.112852,15.7177734 L116.112852,14.6787109 L114.943906,14.6787109 L114.943906,22 L116.174375,22 Z M127.105039,22 C128.426654,22 129.390521,21.6080729 129.996641,20.8242188 C130.40224,20.3001302 130.605039,19.7145182 130.605039,19.0673828 C130.605039,18.2972005 130.379453,17.6933594 129.928281,17.2558594 C129.673073,17.0097656 129.287982,16.788737 128.773008,16.5927734 C129.123919,16.4150391 129.392799,16.2190755 129.579648,16.0048828 C129.939674,15.5992839 130.119687,15.0797526 130.119687,14.4462891 C130.119687,13.9039714 129.973854,13.4254557 129.682187,13.0107422 C129.185443,12.3089193 128.34918,11.9580078 127.173398,11.9580078 L127.173398,11.9580078 L122.859922,11.9580078 L122.859922,22 L127.105039,22 Z M126.667539,16.203125 L124.19293,16.203125 L124.19293,13.0927734 L126.619687,13.0927734 C127.212135,13.0927734 127.65875,13.1565755 127.959531,13.2841797 C128.492734,13.5120443 128.759336,13.9541016 128.759336,14.6103516 C128.759336,15.2620443 128.508685,15.7132161 128.007383,15.9638672 C127.688372,16.1233724 127.241758,16.203125 126.667539,16.203125 L126.667539,16.203125 Z M127.125547,20.8378906 L124.19293,20.8378906 L124.19293,17.3037109 L126.893125,17.3037109 C127.462786,17.3037109 127.920794,17.374349 128.267148,17.515625 C128.918841,17.7799479 129.244687,18.2766927 129.244687,19.0058594 C129.244687,19.4388021 129.133034,19.8079427 128.909727,20.1132812 C128.554258,20.5963542 127.959531,20.8378906 127.125547,20.8378906 L127.125547,20.8378906 Z M133.496641,22 L133.496292,15.9635184 C133.494897,15.7277483 133.489316,15.394043 133.479551,14.9624023 C133.468158,14.4588216 133.462461,14.0839844 133.462461,13.8378906 L133.462461,13.5302734 L136.347227,22 L137.693906,22 L140.558164,13.5302734 C140.558164,14.0725911 140.553607,14.5807292 140.544492,15.0546875 C140.535378,15.5286458 140.53082,15.8681641 140.53082,16.0732422 L140.53082,16.0732422 L140.53082,22 L141.822812,22 L141.822812,11.9580078 L139.895078,11.9580078 L137.03082,20.4482422 L134.146055,11.9580078 L132.197812,11.9580078 L132.197812,22 L133.496641,22 Z M147.947812,22.2597656 C149.301328,22.2597656 150.376849,21.8291016 151.174375,20.9677734 C151.83974,20.2522786 152.231667,19.3658854 152.350156,18.3085938 L152.350156,18.3085938 L151.023984,18.3085938 C150.887266,18.969401 150.679909,19.5026042 150.401914,19.9082031 C149.877826,20.6783854 149.114479,21.0634766 148.111875,21.0634766 C147.022682,21.0634766 146.203509,20.6977539 145.654355,19.9663086 C145.105202,19.2348633 144.830625,18.28125 144.830625,17.1054688 C144.830625,15.6699219 145.134824,14.6046549 145.743223,13.909668 C146.351621,13.214681 147.150286,12.8671875 148.139219,12.8671875 C148.950417,12.8671875 149.580462,13.0563151 150.029355,13.4345703 C150.478249,13.8128255 150.777891,14.3255208 150.928281,14.9726562 L150.928281,14.9726562 L152.254453,14.9726562 C152.176979,14.1204427 151.787331,13.359375 151.085508,12.6894531 C150.383685,12.0195312 149.397031,11.6845703 148.125547,11.6845703 C146.635312,11.6845703 145.466367,12.1995443 144.618711,13.2294922 C143.834857,14.1774089 143.44293,15.3919271 143.44293,16.8730469 C143.44293,18.8235677 143.96474,20.2659505 145.008359,21.2001953 C145.801328,21.9065755 146.781146,22.2597656 147.947812,22.2597656 Z" id="BuiltonOpenBMC"></path>
        </g>
    </g>
</svg>