<svg xmlns="http://www.w3.org/2000/svg" width="50" height="32.972"><path fill="#0071C5" d="M23.752 29.39c-9.882.913-20.179-.521-21.621-8.243-.706-3.807 1.03-7.843 3.331-10.35v-1.34C1.319 13.091-.928 17.688.366 23.121c1.652 6.966 10.489 10.912 23.979 9.602 5.337-.519 12.321-2.237 17.181-4.902v-3.787c-4.41 2.623-11.701 4.793-17.774 5.356zM49.778 9.366c-2.345-11.442-24.56-12.167-38.879-3.45v.962c14.304-7.353 34.59-7.308 36.44 3.231.617 3.485-1.346 7.119-4.853 9.208v2.732c4.221-1.545 8.551-6.552 7.292-12.683z"/><path fill="#0071C5" d="M40.725 7.7h-2.591v11.534c0 1.354.657 2.529 2.591 2.716V7.7zM9.88 11.911H7.286l-.002 7.538c0 1.354.658 2.531 2.596 2.717V11.911zM7.286 8.05h2.587v2.458H7.286zM25.395 22.046c-2.095 0-2.984-1.457-2.984-2.896V9.146h2.568v2.766h1.933v2.074h-1.933v5.005c0 .588.279.915.89.915h1.042v2.141h-1.516M30.121 17.779c0 1.314.817 2.28 2.276 2.28 1.136 0 1.699-.313 2.356-.966l1.586 1.514c-1.016 1.005-2.082 1.614-3.961 1.614-2.461 0-4.817-1.342-4.817-5.252 0-3.341 2.058-5.231 4.759-5.231 2.739 0 4.318 2.213 4.318 5.114v.926h-6.517m2.087-3.914c-.879 0-1.558.452-1.841 1.064-.169.367-.227.65-.246 1.101h3.954c-.051-1.101-.55-2.165-1.867-2.165zM16.856 13.985c.753 0 1.066.373 1.066.977v7.098h2.568v-7.111c0-1.443-.769-3.033-3.023-3.033l-5.305-.005V22.06h2.569v-8.075h2.125zM43.515 9.762a1.028 1.028 0 01-1.028-1.031c0-.567.456-1.031 1.028-1.031.568 0 1.034.463 1.034 1.031 0 .568-.466 1.031-1.034 1.031zm0-1.89a.856.856 0 000 1.712.856.856 0 000-1.712zm.457 1.476h-.192a.044.044 0 01-.04-.026l-.263-.443c-.003-.009-.026-.02-.036-.02H43.325v.44c0 .022-.018.049-.048.049h-.172c-.023 0-.044-.026-.044-.049V8.186c0-.064.023-.091.081-.099.06-.008.225-.014.316-.014.318 0 .51.094.51.393v.021c0 .186-.091.284-.234.331l.271.46a.084.084 0 01.008.032c-.001.017-.012.038-.041.038zm-.253-.882c0-.125-.073-.166-.242-.166h-.16v.354l.16.005c.169 0 .242-.055.242-.173v-.02z"/></svg>