<?xml version="1.0" encoding="utf-8"?>
<!-- Generator: Adobe Illustrator 16.0.0, SVG Export Plug-In . SVG Version: 6.00 Build 0)  -->
<!DOCTYPE svg PUBLIC "-//W3C//DTD SVG 1.1//EN" "http://www.w3.org/Graphics/SVG/1.1/DTD/svg11.dtd">
<svg version="1.1" id="Intel-logo" xmlns="http://www.w3.org/2000/svg" xmlns:xlink="http://www.w3.org/1999/xlink" x="0px" y="0px"
	 width="50px" height="32.972px" viewBox="0 0 50 32.972" enable-background="new 0 0 50 32.972" xml:space="preserve">
<path id="Swoosh" fill="#0071C5" d="M23.752,29.39c-9.882,0.913-20.179-0.521-21.621-8.243c-0.706-3.807,1.03-7.843,3.331-10.35
	v-1.34c-4.143,3.634-6.39,8.231-5.096,13.664c1.652,6.966,10.489,10.912,23.979,9.602c5.337-0.519,12.321-2.237,17.181-4.902v-3.787
	C37.116,26.657,29.825,28.827,23.752,29.39z M49.778,9.366c-2.345-11.442-24.56-12.167-38.879-3.45v0.962
	c14.304-7.353,34.59-7.308,36.44,3.231c0.617,3.485-1.346,7.119-4.853,9.208v2.732C46.707,20.504,51.037,15.497,49.778,9.366z"/>
<path id="l" fill="#0071C5" d="M40.725,7.7h-2.591v11.534c0,1.354,0.657,2.529,2.591,2.716V7.7z"/>
<path id="i" fill="#0071C5" d="M9.88,11.911H7.286l-0.002,7.538c0,1.354,0.658,2.531,2.596,2.717V11.911z"/>
<rect id="i-top" x="7.286" y="8.05" fill="#0071C5" width="2.587" height="2.458"/>
<path id="t" fill="#0071C5" d="M25.395,22.046c-2.095,0-2.984-1.457-2.984-2.896V9.146h2.568v2.766h1.933v2.074h-1.933v5.005
	c0,0.588,0.279,0.915,0.89,0.915h1.042v2.141H25.395"/>
<path id="e" fill="#0071C5" d="M30.121,17.779c0,1.314,0.817,2.28,2.276,2.28c1.136,0,1.699-0.313,2.356-0.966l1.586,1.514
	c-1.016,1.005-2.082,1.614-3.961,1.614c-2.461,0-4.817-1.342-4.817-5.252c0-3.341,2.058-5.231,4.759-5.231
	c2.739,0,4.318,2.213,4.318,5.114v0.926H30.121 M32.208,13.864c-0.879,0-1.558,0.452-1.841,1.064
	c-0.169,0.367-0.227,0.65-0.246,1.101h3.954C34.024,14.928,33.525,13.864,32.208,13.864z"/>
<path id="n" fill="#0071C5" d="M16.856,13.985c0.753,0,1.066,0.373,1.066,0.977v7.098h2.568v-7.111c0-1.443-0.769-3.033-3.023-3.033
	l-5.305-0.005V22.06h2.569v-8.075H16.856z"/>
<g id="trademark">
	<path fill="#0071C5" d="M43.515,9.762c-0.572,0-1.028-0.463-1.028-1.031c0-0.567,0.456-1.031,1.028-1.031
		c0.568,0,1.034,0.463,1.034,1.031C44.549,9.299,44.083,9.762,43.515,9.762z M43.515,7.872c-0.471,0-0.851,0.387-0.851,0.859
		c0,0.47,0.38,0.853,0.851,0.853s0.856-0.383,0.856-0.853C44.371,8.259,43.985,7.872,43.515,7.872z M43.972,9.348h-0.192
		c-0.018,0-0.033-0.011-0.04-0.026l-0.263-0.443c-0.003-0.009-0.026-0.02-0.036-0.02c0,0-0.041,0-0.074,0c-0.018,0-0.036,0-0.042,0
		v0.44c0,0.022-0.018,0.049-0.048,0.049h-0.172c-0.023,0-0.044-0.026-0.044-0.049V8.186c0-0.064,0.023-0.091,0.081-0.099
		c0.06-0.008,0.225-0.014,0.316-0.014c0.318,0,0.51,0.094,0.51,0.393v0.021c0,0.186-0.091,0.284-0.234,0.331l0.271,0.46
		c0.004,0.008,0.008,0.022,0.008,0.032C44.012,9.327,44.001,9.348,43.972,9.348z M43.719,8.466c0-0.125-0.073-0.166-0.242-0.166
		c-0.019,0-0.075,0-0.116,0c-0.021,0-0.036,0-0.044,0v0.354c0.023,0,0.142,0.005,0.16,0.005c0.169,0,0.242-0.055,0.242-0.173V8.466z
		"/>
</g>
</svg>
